<?xml version="1.0" encoding="utf-8"?>
<!-- Generator: Adobe Illustrator 18.0.0, SVG Export Plug-In . SVG Version: 6.00 Build 0)  -->
<!DOCTYPE svg PUBLIC "-//W3C//DTD SVG 1.1//EN" "http://www.w3.org/Graphics/SVG/1.1/DTD/svg11.dtd">
<svg version="1.1" id="Layer_1" xmlns="http://www.w3.org/2000/svg" xmlns:xlink="http://www.w3.org/1999/xlink" x="0px" y="0px"
	 viewBox="0 0 117 113" enable-background="new 0 0 117 113" xml:space="preserve">
<g>
	<path fill="#404041" d="M-101.4,152.9h2.5c1.2,0,2.2-0.3,2.9-0.9c0.7-0.6,1-1.4,1-2.5c0-1-0.3-1.8-1-2.4c-0.7-0.6-1.7-0.8-2.9-0.8
		h-2.5V152.9L-101.4,152.9z M-101.4,142h2c1.2,0,2.1-0.3,2.8-0.8c0.7-0.5,1-1.3,1-2.2c0-1-0.3-1.7-1-2.1c-0.6-0.5-1.6-0.7-3-0.7
		h-1.9V142L-101.4,142z M-107,157.5v-25.6h7.9c3,0,5.2,0.5,6.8,1.6c1.5,1.1,2.3,2.7,2.3,4.9c0,1.3-0.3,2.4-1,3.3
		c-0.7,0.9-1.7,1.6-3.2,2.1c1.6,0.4,2.8,1.1,3.7,2.2c0.9,1.1,1.3,2.4,1.3,4c0,2.5-0.9,4.3-2.7,5.6c-1.8,1.3-4.5,1.9-8.1,1.9H-107
		L-107,157.5z M-67.8,149.4h6.7l-3.3-8L-67.8,149.4L-67.8,149.4z M-77.4,157.5l13.1-26.4h0.4l12.8,26.4h-6.4l-1.6-3.7h-10.4
		l-1.7,3.7H-77.4L-77.4,157.5z M-30.8,136.6h-1v7.1h1.3c1.5,0,2.7-0.3,3.5-0.9c0.8-0.6,1.2-1.5,1.2-2.7c0-1.2-0.4-2.1-1.2-2.7
		C-27.8,136.8-29,136.6-30.8,136.6L-30.8,136.6z M-37.8,157.5v-25.6h6.6c2.1,0,3.7,0.1,4.9,0.4c1.2,0.3,2.2,0.7,3.1,1.4
		c1,0.7,1.7,1.5,2.2,2.5c0.5,1,0.8,2.1,0.8,3.2c0,1.6-0.4,3-1.2,4.2c-0.8,1.2-2,2.2-3.5,2.8l7.8,11h-7l-6.8-10.1h-0.9v10.1H-37.8
		L-37.8,157.5z M2.3,152.9h2.5c1.2,0,2.2-0.3,2.9-0.9c0.7-0.6,1-1.4,1-2.5c0-1-0.3-1.8-1-2.4c-0.7-0.6-1.7-0.8-2.9-0.8H2.3V152.9
		L2.3,152.9z M2.3,142h2c1.2,0,2.1-0.3,2.8-0.8c0.7-0.5,1-1.3,1-2.2c0-1-0.3-1.7-1-2.1c-0.6-0.5-1.6-0.7-3-0.7H2.3V142L2.3,142z
		 M-3.2,157.5v-25.6h7.9c3,0,5.2,0.5,6.8,1.6c1.5,1.1,2.3,2.7,2.3,4.9c0,1.3-0.3,2.4-1,3.3c-0.7,0.9-1.7,1.6-3.2,2.1
		c1.6,0.4,2.8,1.1,3.7,2.2c0.9,1.1,1.3,2.4,1.3,4c0,2.5-0.9,4.3-2.7,5.6c-1.8,1.3-4.5,1.9-8.1,1.9H-3.2L-3.2,157.5z M36,149.4h6.7
		l-3.3-8L36,149.4L36,149.4z M26.4,157.5l13.1-26.4h0.4l12.8,26.4h-6.4l-1.6-3.7H34.2l-1.7,3.7H26.4L26.4,157.5z M83.4,136.6h-1v7.1
		h1.3c1.5,0,2.7-0.3,3.5-0.9c0.8-0.6,1.2-1.5,1.2-2.7c0-1.2-0.4-2.1-1.2-2.7C86.5,136.8,85.2,136.6,83.4,136.6L83.4,136.6z
		 M76.5,157.5v-25.6H83c2.1,0,3.7,0.1,4.9,0.4c1.2,0.3,2.2,0.7,3.1,1.4c1,0.7,1.7,1.5,2.2,2.5c0.5,1,0.8,2.1,0.8,3.2
		c0,1.6-0.4,3-1.2,4.2c-0.8,1.2-2,2.2-3.5,2.8l7.8,11h-7l-6.8-10.1h-0.9v10.1H76.5L76.5,157.5z M116.8,131.9V146
		c0,2.3,0.4,4,1.2,5.1c0.8,1.1,2.1,1.7,3.8,1.7c1.6,0,2.9-0.5,3.7-1.6c0.9-1,1.3-2.6,1.3-4.6v-14.7h5.5v14.7c0,3.7-0.9,6.6-2.8,8.7
		c-1.9,2.1-4.5,3.1-7.9,3.1c-3.4,0-6.1-1-7.9-3.1c-1.9-2-2.8-4.9-2.8-8.6v-14.7H116.8L116.8,131.9z M149.4,157.5v-25.6h6.1v25.6
		H149.4L149.4,157.5z M181.7,158.5h-0.4l-12.1-26.6h6.5l6,14l6.1-14h6L181.7,158.5L181.7,158.5z M210.6,149.4h6.7l-3.3-8
		L210.6,149.4L210.6,149.4z M201,157.5l13.1-26.4h0.4l12.8,26.4h-6.4l-1.6-3.7h-10.4l-1.7,3.7H201L201,157.5z"/>
	<g>
		<defs>
			<path id="SVGID_1_" d="M58.1,4.6c28.7,0,52,23.3,52,52s-23.3,52-52,52c-28.7,0-52-23.3-52-52S29.4,4.6,58.1,4.6L58.1,4.6z"/>
		</defs>
		<clipPath id="SVGID_2_">
			<use xlink:href="#SVGID_1_"  overflow="visible"/>
		</clipPath>
		<polygon clip-path="url(#SVGID_2_)" fill-rule="evenodd" clip-rule="evenodd" fill="#404041" points="-10.6,42.3 130,42.3 
			130,126.9 -10.6,126.9 -10.6,42.3 		"/>
		<polygon clip-path="url(#SVGID_2_)" fill-rule="evenodd" clip-rule="evenodd" fill="#FFFFFF" points="6.3,26.1 58.1,-19.1 
			113.1,26.1 110.4,62.2 99,52.3 78.7,65.5 60.9,45.2 38.5,62 23.2,53.4 6.3,62 6.3,26.1 		"/>
		<polygon clip-path="url(#SVGID_2_)" fill-rule="evenodd" clip-rule="evenodd" fill="#FFFFFF" points="10.7,66.4 14.2,71.6 
			21.1,60.1 10.7,66.4 		"/>
		<polygon clip-path="url(#SVGID_2_)" fill-rule="evenodd" clip-rule="evenodd" fill="#FFFFFF" points="82.6,69.2 87.5,76.8 
			97.5,60.1 82.6,69.2 		"/>
		<polygon clip-path="url(#SVGID_2_)" fill-rule="evenodd" clip-rule="evenodd" fill="#FFFFFF" points="24.4,80.7 36.4,95.5 
			45.8,80.7 41.4,76.5 58.4,51.5 24.4,80.7 		"/>
	</g>
	<path fill="none" stroke="#404041" stroke-width="5.9528" stroke-miterlimit="22.9256" d="M58.1,4.6c28.7,0,52,23.3,52,52
		s-23.3,52-52,52c-28.7,0-52-23.3-52-52S29.4,4.6,58.1,4.6L58.1,4.6z"/>
	<path fill="#404041" d="M-49.8,183.2v-10.6h2.8c1,0,1.7,0.1,2.1,0.2c0.5,0.2,0.9,0.5,1.3,1c0.3,0.5,0.5,1.2,0.5,2.1
		c0,0.8-0.1,1.4-0.4,1.9c-0.3,0.5-0.6,0.9-1.1,1.1c-0.4,0.2-1.2,0.3-2.2,0.3h-1.1v4H-49.8L-49.8,183.2z M-48.1,174.4v3h1
		c0.6,0,1.1,0,1.3-0.1c0.2-0.1,0.4-0.3,0.6-0.5c0.1-0.2,0.2-0.5,0.2-0.9c0-0.4-0.1-0.6-0.2-0.9c-0.2-0.2-0.3-0.4-0.6-0.5
		c-0.2-0.1-0.7-0.1-1.4-0.1H-48.1L-48.1,174.4z M-29.2,183.2v-10.6h1.7v4.2h3.4v-4.2h1.7v10.6H-24v-4.6h-3.4v4.6H-29.2L-29.2,183.2z
		 M-8.2,178c0-1.3,0.2-2.3,0.6-3.1c0.4-0.8,0.9-1.4,1.5-1.8c0.6-0.4,1.3-0.6,2.2-0.6c1.2,0,2.2,0.5,3,1.4c0.8,0.9,1.2,2.3,1.2,4
		c0,1.8-0.4,3.1-1.2,4.1c-0.7,0.9-1.7,1.3-2.9,1.3c-1.3,0-2.2-0.4-3-1.3C-7.7,181.1-8.2,179.7-8.2,178L-8.2,178z M-6.4,177.9
		c0,1.2,0.2,2.1,0.7,2.7c0.5,0.6,1,0.9,1.7,0.9c0.7,0,1.3-0.3,1.7-0.9c0.5-0.6,0.7-1.5,0.7-2.8c0-1.2-0.2-2.1-0.7-2.7
		c-0.4-0.6-1-0.9-1.7-0.9c-0.7,0-1.3,0.3-1.7,0.9C-6.1,175.7-6.4,176.7-6.4,177.9L-6.4,177.9z M16.2,183.2v-8.8h-2.6v-1.8h6.9v1.8
		h-2.6v8.8H16.2L16.2,183.2z M33.7,178c0-1.3,0.2-2.3,0.6-3.1c0.4-0.8,0.9-1.4,1.5-1.8c0.6-0.4,1.3-0.6,2.2-0.6c1.2,0,2.2,0.5,3,1.4
		c0.8,0.9,1.2,2.3,1.2,4c0,1.8-0.4,3.1-1.2,4.1c-0.7,0.9-1.7,1.3-2.9,1.3c-1.3,0-2.2-0.4-3-1.3C34.1,181.1,33.7,179.7,33.7,178
		L33.7,178z M35.5,177.9c0,1.2,0.2,2.1,0.7,2.7c0.5,0.6,1,0.9,1.7,0.9c0.7,0,1.3-0.3,1.7-0.9c0.5-0.6,0.7-1.5,0.7-2.8
		c0-1.2-0.2-2.1-0.7-2.7c-0.4-0.6-1-0.9-1.7-0.9c-0.7,0-1.3,0.3-1.7,0.9C35.7,175.7,35.5,176.7,35.5,177.9L35.5,177.9z M60.1,179.3
		v-1.8h3.8v4.2c-0.4,0.4-0.9,0.8-1.6,1.2c-0.7,0.3-1.4,0.5-2.1,0.5c-0.9,0-1.6-0.2-2.3-0.6c-0.7-0.4-1.2-1-1.6-1.9
		c-0.4-0.8-0.6-1.8-0.6-3c0-1.2,0.2-2.2,0.6-3c0.4-0.8,0.9-1.4,1.5-1.8c0.6-0.4,1.4-0.6,2.2-0.6c1,0,1.9,0.3,2.5,0.8
		c0.6,0.5,1,1.3,1.2,2.3L62,176c-0.1-0.5-0.4-1-0.7-1.2c-0.3-0.3-0.8-0.4-1.2-0.4c-0.7,0-1.3,0.3-1.8,0.9c-0.5,0.6-0.7,1.5-0.7,2.6
		c0,1.3,0.3,2.2,0.7,2.9c0.4,0.6,1,0.9,1.7,0.9c0.3,0,0.7-0.1,1.1-0.2c0.4-0.2,0.7-0.4,1-0.7v-1.3H60.1L60.1,179.3z M78.1,183.2
		v-10.6h3.7c0.9,0,1.6,0.1,2,0.3c0.4,0.2,0.7,0.5,1,1c0.3,0.5,0.4,1,0.4,1.7c0,0.8-0.2,1.5-0.6,2c-0.4,0.5-1,0.8-1.7,1
		c0.4,0.3,0.7,0.6,0.9,0.9c0.2,0.3,0.6,0.9,1,1.7l1.1,2.1h-2.1l-1.3-2.3c-0.5-0.8-0.8-1.4-0.9-1.6c-0.2-0.2-0.3-0.4-0.5-0.4
		c-0.2-0.1-0.5-0.1-0.9-0.1h-0.4v4.4H78.1L78.1,183.2z M79.9,177.1h1.3c0.8,0,1.3,0,1.5-0.1c0.2-0.1,0.4-0.2,0.5-0.4
		c0.1-0.2,0.2-0.5,0.2-0.8c0-0.3-0.1-0.6-0.2-0.8c-0.1-0.2-0.3-0.3-0.5-0.4c-0.2-0.1-0.6-0.1-1.4-0.1h-1.4V177.1L79.9,177.1z
		 M107.3,183.2h-1.9l-0.7-2.4h-3.5l-0.7,2.4h-1.9l3.4-10.6h1.9L107.3,183.2L107.3,183.2z M104.1,179l-1.2-3.9l-1.2,3.9H104.1
		L104.1,179z M120.8,183.2v-10.6h2.8c1,0,1.7,0.1,2.1,0.2c0.5,0.2,0.9,0.5,1.3,1c0.3,0.5,0.5,1.2,0.5,2.1c0,0.8-0.1,1.4-0.4,1.9
		c-0.3,0.5-0.6,0.9-1.1,1.1c-0.4,0.2-1.2,0.3-2.2,0.3h-1.1v4H120.8L120.8,183.2z M122.6,174.4v3h1c0.6,0,1.1,0,1.3-0.1
		c0.2-0.1,0.4-0.3,0.6-0.5c0.1-0.2,0.2-0.5,0.2-0.9c0-0.4-0.1-0.6-0.2-0.9c-0.2-0.2-0.3-0.4-0.6-0.5c-0.2-0.1-0.7-0.1-1.4-0.1H122.6
		L122.6,174.4z M141.5,183.2v-10.6h1.7v4.2h3.4v-4.2h1.7v10.6h-1.7v-4.6h-3.4v4.6H141.5L141.5,183.2z M165.1,183.2v-4.5l-3.2-6.1h2
		l2,4.1l2-4.1h2l-3.2,6.1v4.4H165.1L165.1,183.2z"/>
</g>
</svg>
