<?xml version="1.0" encoding="utf-8"?>
<!-- Generator: Adobe Illustrator 18.0.0, SVG Export Plug-In . SVG Version: 6.00 Build 0)  -->
<!DOCTYPE svg PUBLIC "-//W3C//DTD SVG 1.1//EN" "http://www.w3.org/Graphics/SVG/1.1/DTD/svg11.dtd">
<svg version="1.1" id="Layer_1" xmlns="http://www.w3.org/2000/svg" xmlns:xlink="http://www.w3.org/1999/xlink" x="0px" y="0px"
	 viewBox="42.8 223.1 533.3 352.2" enable-background="new 42.8 223.1 533.3 352.2" xml:space="preserve">
<g>
	<path fill="#FFFFFF" d="M56.9,474.6h3.9c1.9,0,3.4-0.5,4.5-1.4c1.1-0.9,1.5-2.2,1.5-3.9c0-1.5-0.5-2.8-1.5-3.7
		c-1.1-0.9-2.6-1.2-4.5-1.2h-3.9V474.6L56.9,474.6z M56.9,457.7H60c1.9,0,3.2-0.5,4.3-1.2c1.1-0.8,1.5-2,1.5-3.4
		c0-1.5-0.5-2.6-1.5-3.2c-0.9-0.8-2.5-1.1-4.6-1.1h-2.9v9H56.9z M48.2,481.7v-39.6h12.2c4.6,0,8,0.8,10.5,2.5
		c2.3,1.7,3.6,4.2,3.6,7.6c0,2-0.5,3.7-1.5,5.1c-1.1,1.4-2.6,2.5-4.9,3.2c2.5,0.6,4.3,1.7,5.7,3.4c1.4,1.7,2,3.7,2,6.2
		c0,3.9-1.4,6.6-4.2,8.7s-7,2.9-12.5,2.9H48.2L48.2,481.7z M108.8,469.2h10.4l-5.1-12.4L108.8,469.2L108.8,469.2z M94,481.7
		l20.2-40.8h0.6l19.8,40.8h-9.9l-2.5-5.7H106l-2.5,5.7H94L94,481.7z M166,449.4h-1.5v11h2c2.3,0,4.2-0.5,5.4-1.4
		c1.2-0.9,1.9-2.3,1.9-4.2s-0.6-3.2-1.9-4.2C170.6,449.9,168.8,449.4,166,449.4L166,449.4z M155.2,481.7v-39.6h10.2
		c3.2,0,5.7,0.2,7.6,0.6c1.9,0.5,3.4,1.1,4.8,2.2c1.5,1.1,2.6,2.3,3.4,3.9c0.8,1.5,1.2,3.2,1.2,4.9c0,2.5-0.6,4.6-1.9,6.5
		c-1.2,1.9-3.1,3.4-5.4,4.3l12.1,17h-10.8l-10.5-15.6h-1.4v15.8H155.2L155.2,481.7z M217.1,474.6h3.9c1.9,0,3.4-0.5,4.5-1.4
		c1.1-0.9,1.5-2.2,1.5-3.9c0-1.5-0.5-2.8-1.5-3.7c-1.1-0.9-2.6-1.2-4.5-1.2h-3.9V474.6L217.1,474.6z M217.1,457.7h3.1
		c1.9,0,3.2-0.5,4.3-1.2c1.1-0.8,1.5-2,1.5-3.4c0-1.5-0.5-2.6-1.5-3.2c-0.9-0.8-2.5-1.1-4.6-1.1H217v9H217.1z M208.6,481.7v-39.6
		h12.2c4.6,0,8,0.8,10.5,2.5c2.3,1.7,3.6,4.2,3.6,7.6c0,2-0.5,3.7-1.5,5.1c-1.1,1.4-2.6,2.5-4.9,3.2c2.5,0.6,4.3,1.7,5.7,3.4
		c1.4,1.7,2,3.7,2,6.2c0,3.9-1.4,6.6-4.2,8.7c-2.8,2-7,2.9-12.5,2.9H208.6L208.6,481.7z M269.2,469.2h10.4l-5.1-12.4L269.2,469.2
		L269.2,469.2z M254.4,481.7l20.2-40.8h0.6l19.8,40.8h-9.9l-2.5-5.7h-16.1l-2.6,5.7H254.4L254.4,481.7z M342.5,449.4h-1.5v11h2
		c2.3,0,4.2-0.5,5.4-1.4c1.2-0.9,1.9-2.3,1.9-4.2s-0.6-3.2-1.9-4.2C347.3,449.9,345.3,449.4,342.5,449.4L342.5,449.4z M331.8,481.7
		v-39.6H342c3.2,0,5.7,0.2,7.6,0.6c1.9,0.5,3.4,1.1,4.8,2.2c1.5,1.1,2.6,2.3,3.4,3.9c0.8,1.5,1.2,3.2,1.2,4.9c0,2.5-0.6,4.6-1.9,6.5
		c-1.2,1.9-3.1,3.4-5.4,4.3l12.1,17H353l-10.5-15.6h-1.4v15.8H331.8L331.8,481.7z M394.1,442.1v21.8c0,3.6,0.6,6.2,1.9,7.9
		c1.2,1.7,3.2,2.6,5.9,2.6c2.5,0,4.5-0.8,5.7-2.5c1.4-1.5,2-4,2-7.1v-22.7h8.5v22.7c0,5.7-1.4,10.2-4.3,13.4
		c-2.9,3.2-7,4.8-12.2,4.8c-5.3,0-9.4-1.5-12.2-4.8c-2.9-3.1-4.3-7.6-4.3-13.3v-22.7h9.1V442.1z M444.5,481.7v-39.6h9.4v39.6H444.5
		L444.5,481.7z M494.4,483.2h-0.6l-18.7-41.1h10l9.3,21.6l9.4-21.6h9.3L494.4,483.2L494.4,483.2z M539.1,469.2h10.4l-5.1-12.4
		L539.1,469.2L539.1,469.2z M524.2,481.7l20.2-40.8h0.6l19.8,40.8h-10l-2.5-5.7h-16.1l-2.6,5.7H524.2L524.2,481.7z"/>
	<g>
		<g>
			<defs>
				<path id="SVGID_2_" d="M303.4,245.5c44.4,0,80.4,36,80.4,80.4s-36,80.4-80.4,80.4s-80.4-36-80.4-80.4S259,245.5,303.4,245.5
					L303.4,245.5z"/>
			</defs>
			<clipPath id="SVGID_3_">
				<use xlink:href="#SVGID_2_"  overflow="visible"/>
			</clipPath>
			<path clip-path="url(#SVGID_3_)" fill="#FFFFFF" stroke="#FFFFFF" stroke-miterlimit="10" d="M232.2,363.2l-8.8-29.1l26-13.3
				l23.6,13.3l34.6-26l27.7,31.4l31.4-20.4l17.8,15.5L360.7,389l-57.1,17.3l-41.8-11.6L232.2,363.2z M230.1,340.9l5.3,8l10.7-17.8
				L230.1,340.9L230.1,340.9z M341.2,345.2L349,357l15.5-25.8L341.2,345.2L341.2,345.2z M251.3,363l18.7,23l14.5-23l-7-6.3
				l26.3-38.6L251.3,363L251.3,363z"/>
		</g>
		<g>
			<path id="SVGID_1_" fill="none" stroke="#FFFFFF" stroke-miterlimit="10" d="M303.4,245.5c44.4,0,80.4,36,80.4,80.4
				s-36,80.4-80.4,80.4s-80.4-36-80.4-80.4S259,245.5,303.4,245.5L303.4,245.5z"/>
		</g>
	</g>
	<path fill="none" stroke="#FFFFFF" stroke-width="8" stroke-miterlimit="22.9256" d="M303.4,245.5c44.4,0,80.4,36,80.4,80.4
		s-36,80.4-80.4,80.4s-80.4-36-80.4-80.4S259,245.5,303.4,245.5L303.4,245.5z"/>
	<path fill="#FFFFFF" d="M136.6,521.4V505h4.3c1.5,0,2.6,0.2,3.2,0.3c0.8,0.3,1.4,0.8,2,1.5c0.5,0.8,0.8,1.9,0.8,3.2
		c0,1.2-0.2,2.2-0.6,2.9c-0.5,0.8-0.9,1.4-1.7,1.7c-0.6,0.3-1.9,0.5-3.4,0.5h-1.7v6.2H136.6L136.6,521.4z M139.2,507.8v4.6h1.5
		c0.9,0,1.7,0,2-0.2c0.3-0.2,0.6-0.5,0.9-0.8c0.2-0.3,0.3-0.8,0.3-1.4c0-0.6-0.2-0.9-0.3-1.4c-0.3-0.3-0.5-0.6-0.9-0.8
		c-0.3-0.2-1.1-0.2-2.2-0.2H139.2L139.2,507.8z M168.5,521.4V505h2.6v6.5h5.3V505h2.6v16.4h-2.6v-7.1h-5.3v7.1H168.5L168.5,521.4z
		 M200.9,513.4c0-2,0.3-3.6,0.9-4.8c0.6-1.2,1.4-2.2,2.3-2.8c0.9-0.6,2-0.9,3.4-0.9c1.9,0,3.4,0.8,4.6,2.2c1.2,1.4,1.9,3.6,1.9,6.2
		c0,2.8-0.6,4.8-1.9,6.3c-1.1,1.4-2.6,2-4.5,2c-2,0-3.4-0.6-4.6-2C201.7,518.2,200.9,516,200.9,513.4L200.9,513.4z M203.7,513.2
		c0,1.9,0.3,3.2,1.1,4.2c0.8,0.9,1.5,1.4,2.6,1.4c1.1,0,2-0.5,2.6-1.4c0.8-0.9,1.1-2.3,1.1-4.3c0-1.9-0.3-3.2-1.1-4.2
		c-0.6-0.9-1.5-1.4-2.6-1.4c-1.1,0-2,0.5-2.6,1.4C204.2,510,203.7,511.4,203.7,513.2L203.7,513.2z M238.6,521.4v-13.6h-4V505h10.7
		v2.8h-4v13.6H238.6L238.6,521.4z M265.7,513.4c0-2,0.3-3.6,0.9-4.8c0.6-1.2,1.4-2.2,2.3-2.8c0.9-0.6,2-0.9,3.4-0.9
		c1.9,0,3.4,0.8,4.6,2.2c1.2,1.4,1.9,3.6,1.9,6.2c0,2.8-0.6,4.8-1.9,6.3c-1.1,1.4-2.6,2-4.5,2c-2,0-3.4-0.6-4.6-2
		C266.3,518.2,265.7,516,265.7,513.4L265.7,513.4z M268.4,513.2c0,1.9,0.3,3.2,1.1,4.2c0.8,0.9,1.5,1.4,2.6,1.4c1.1,0,2-0.5,2.6-1.4
		c0.8-0.9,1.1-2.3,1.1-4.3c0-1.9-0.3-3.2-1.1-4.2c-0.6-0.9-1.5-1.4-2.6-1.4c-1.1,0-2,0.5-2.6,1.4C268.8,510,268.4,511.4,268.4,513.2
		L268.4,513.2z M306.5,515.4v-2.8h5.9v6.5c-0.6,0.6-1.4,1.2-2.5,1.9c-1.1,0.5-2.2,0.8-3.2,0.8c-1.4,0-2.5-0.3-3.6-0.9
		c-1.1-0.6-1.9-1.5-2.5-2.9c-0.6-1.2-0.9-2.8-0.9-4.6s0.3-3.4,0.9-4.6c0.6-1.2,1.4-2.2,2.3-2.8c0.9-0.6,2.2-0.9,3.4-0.9
		c1.5,0,2.9,0.5,3.9,1.2c0.9,0.8,1.5,2,1.9,3.6l-2.6,0.6c-0.2-0.8-0.6-1.5-1.1-1.9c-0.5-0.5-1.2-0.6-1.9-0.6c-1.1,0-2,0.5-2.8,1.4
		c-0.8,0.9-1.1,2.3-1.1,4c0,2,0.5,3.4,1.1,4.5c0.6,0.9,1.5,1.4,2.6,1.4c0.5,0,1.1-0.2,1.7-0.3c0.6-0.3,1.1-0.6,1.5-1.1v-2h-3.1
		V515.4z M334.3,521.4V505h5.7c1.4,0,2.5,0.2,3.1,0.5c0.6,0.3,1.1,0.8,1.5,1.5c0.5,0.8,0.6,1.5,0.6,2.6c0,1.2-0.3,2.3-0.9,3.1
		c-0.6,0.8-1.5,1.2-2.6,1.5c0.6,0.5,1.1,0.9,1.4,1.4s0.9,1.4,1.5,2.6l1.7,3.2h-3.2l-2-3.6c-0.8-1.2-1.2-2.2-1.4-2.5
		c-0.3-0.3-0.5-0.6-0.8-0.6c-0.3-0.2-0.8-0.2-1.4-0.2h-0.6v6.8h-2.6V521.4z M337.1,512h2c1.2,0,2,0,2.3-0.2c0.3-0.2,0.6-0.3,0.8-0.6
		c0.2-0.3,0.3-0.8,0.3-1.2s-0.2-0.9-0.3-1.2s-0.5-0.5-0.8-0.6c-0.3-0.2-0.9-0.2-2.2-0.2h-2.2L337.1,512L337.1,512z M379.4,521.4
		h-2.9l-1.1-3.7H370l-1.1,3.7H366l5.3-16.4h2.9L379.4,521.4L379.4,521.4z M374.5,514.9l-1.9-6l-1.9,6H374.5L374.5,514.9z
		 M400.3,521.4V505h4.3c1.5,0,2.6,0.2,3.2,0.3c0.8,0.3,1.4,0.8,2,1.5c0.5,0.8,0.8,1.9,0.8,3.2c0,1.2-0.2,2.2-0.6,2.9
		c-0.5,0.8-0.9,1.4-1.7,1.7c-0.6,0.3-1.9,0.5-3.4,0.5h-1.7v6.2H400.3L400.3,521.4z M403.1,507.8v4.6h1.5c0.9,0,1.7,0,2-0.2
		c0.3-0.2,0.6-0.5,0.9-0.8c0.2-0.3,0.3-0.8,0.3-1.4c0-0.6-0.2-0.9-0.3-1.4c-0.3-0.3-0.5-0.6-0.9-0.8c-0.3-0.2-1.1-0.2-2.2-0.2H403.1
		L403.1,507.8z M432.3,521.4V505h2.6v6.5h5.3V505h2.6v16.4h-2.6v-7.1h-5.3v7.1H432.3L432.3,521.4z M468.7,521.4v-7l-4.9-9.4h3.1
		l3.1,6.3l3.1-6.3h3.1l-4.9,9.4v6.8h-2.5V521.4z"/>
</g>
</svg>
